<?xml version="1.0" encoding="UTF-8" standalone="no"?>
<!-- Generator: Adobe Illustrator 19.0.0, SVG Export Plug-In . SVG Version: 6.00 Build 0)  -->

<svg
   xmlns:dc="http://purl.org/dc/elements/1.1/"
   xmlns:cc="http://creativecommons.org/ns#"
   xmlns:rdf="http://www.w3.org/1999/02/22-rdf-syntax-ns#"
   xmlns:svg="http://www.w3.org/2000/svg"
   xmlns="http://www.w3.org/2000/svg"
   xmlns:xlink="http://www.w3.org/1999/xlink"
   xmlns:sodipodi="http://sodipodi.sourceforge.net/DTD/sodipodi-0.dtd"
   xmlns:inkscape="http://www.inkscape.org/namespaces/inkscape"
   version="1.1"
   id="Layer_1"
   x="0px"
   y="0px"
   viewBox="0 0 489.8 489.8"
   style="enable-background:new 0 0 489.8 489.8;"
   xml:space="preserve"
   sodipodi:docname="like.svg"
   inkscape:version="0.92.4 (unknown)"><metadata
   id="metadata66"><rdf:RDF><cc:Work
       rdf:about=""><dc:format>image/svg+xml</dc:format><dc:type
         rdf:resource="http://purl.org/dc/dcmitype/StillImage" /></cc:Work></rdf:RDF></metadata><defs
   id="defs64"><linearGradient
     inkscape:collect="always"
     xlink:href="#linearGradient894"
     id="linearGradient896"
     x1="49.899185"
     y1="245.15685"
     x2="692.07996"
     y2="459.94028"
     gradientUnits="userSpaceOnUse"
     gradientTransform="matrix(1.1421053,0,0,1.1421053,-51.634943,-37.170366)" /><linearGradient
     inkscape:collect="always"
     id="linearGradient894"><stop
       style="stop-color:#00fbff;stop-opacity:1;"
       offset="0"
       id="stop890" /><stop
       style="stop-color:#900084;stop-opacity:0"
       offset="1"
       id="stop892" /></linearGradient></defs><sodipodi:namedview
   pagecolor="#ffffff"
   bordercolor="#666666"
   borderopacity="1"
   objecttolerance="10"
   gridtolerance="10"
   guidetolerance="10"
   inkscape:pageopacity="0"
   inkscape:pageshadow="2"
   inkscape:window-width="1366"
   inkscape:window-height="719"
   id="namedview62"
   showgrid="false"
   inkscape:zoom="0.48182933"
   inkscape:cx="244.89999"
   inkscape:cy="244.89999"
   inkscape:window-x="0"
   inkscape:window-y="25"
   inkscape:window-maximized="1"
   inkscape:current-layer="g27" />

<g
   id="g31">
</g>
<g
   id="g33">
</g>
<g
   id="g35">
</g>
<g
   id="g37">
</g>
<g
   id="g39">
</g>
<g
   id="g41">
</g>
<g
   id="g43">
</g>
<g
   id="g45">
</g>
<g
   id="g47">
</g>
<g
   id="g49">
</g>
<g
   id="g51">
</g>
<g
   id="g53">
</g>
<g
   id="g55">
</g>
<g
   id="g57">
</g>
<g
   id="g59">
</g>
<circle
   style="opacity:1;fill:url(#linearGradient896);fill-opacity:1;stroke-width:0;stroke-miterlimit:4;stroke-dasharray:none"
   id="path888"
   cx="240.74913"
   cy="242.82457"
   r="235.39395" /><g
   transform="translate(29.055925,-118.29916)"
   id="g29"><g
     id="g27"><path
       inkscape:connector-curvature="0"
       id="XMLID_595_"
       style="fill:#3c92ca;stroke-width:0.75456005"
       d="M 138.03114,498.86602 H 85.061024 c -1.584576,0 -2.942784,-1.35821 -2.942784,-2.94279 V 357.08418 c 0,-1.58457 1.358208,-2.94278 2.942784,-2.94278 h 52.970116 c 1.58458,0 2.94278,1.35821 2.94278,2.94278 v 138.83905 c 0,1.58458 -1.28275,2.94279 -2.94278,2.94279 z" /><path
       inkscape:connector-curvature="0"
       d="m 216.42993,147.31649 v 59.76116 c 0,3.7728 3.09369,6.86649 6.86649,6.86649 3.7728,0 6.8665,-3.09369 6.8665,-6.86649 v -59.76116 c 0,-3.7728 -3.0937,-6.86649 -6.8665,-6.86649 -3.84825,0 -6.86649,3.09369 -6.86649,6.86649 z"
       id="path3"
       style="stroke-width:0.75456005" /><path
       inkscape:connector-curvature="0"
       d="m 347.42155,274.76168 h -59.76116 c -3.7728,0 -6.86649,3.0937 -6.86649,6.8665 0,3.7728 3.09369,6.8665 6.86649,6.8665 h 59.76116 c 3.7728,0 6.8665,-3.0937 6.8665,-6.8665 0,-3.7728 -3.0937,-6.8665 -6.8665,-6.8665 z"
       id="path5"
       style="stroke-width:0.75456005" /><path
       inkscape:connector-curvature="0"
       d="m 92.229345,281.62818 c 0,3.7728 3.093696,6.8665 6.866496,6.8665 H 158.857 c 3.7728,0 6.86649,-3.0937 6.86649,-6.8665 0,-3.7728 -3.09369,-6.8665 -6.86649,-6.8665 H 99.095841 c -3.7728,0 -6.866496,3.0937 -6.866496,6.8665 z"
       id="path7"
       style="stroke-width:0.75456005" /><path
       inkscape:connector-curvature="0"
       d="m 129.3537,186.4027 c 1.28275,-1.28275 2.03731,-3.01824 2.03731,-4.82918 0,-1.81095 -0.75456,-3.54643 -2.03731,-4.82919 -1.28275,-1.28275 -3.01824,-2.03731 -4.82919,-2.03731 -1.81094,0 -3.54643,0.75456 -4.82918,2.03731 -1.28275,1.28276 -2.03731,3.01824 -2.03731,4.82919 0,1.81094 0.75456,3.54643 2.03731,4.82918 1.28275,1.28276 3.01824,2.03732 4.82918,2.03732 1.81095,0 3.54644,-0.75456 4.82919,-2.03732 z"
       id="path9"
       style="stroke-width:0.75456005" /><path
       inkscape:connector-curvature="0"
       d="m 147.84042,204.88942 c -2.64096,2.64096 -2.64096,7.01741 0,9.65837 1.35821,1.35821 3.0937,2.03731 4.82918,2.03731 1.73549,0 3.54644,-0.6791 4.82919,-2.03731 2.64096,-2.64096 2.64096,-7.01741 0,-9.65837 -2.64096,-2.64096 -7.01741,-2.64096 -9.65837,0 z"
       id="path11"
       style="stroke-width:0.75456005" /><path
       inkscape:connector-curvature="0"
       d="m 143.46397,200.51298 c 2.64096,-2.64096 2.64096,-7.01741 0,-9.65837 -2.64096,-2.64096 -7.01741,-2.64096 -9.65837,0 -2.64096,2.64096 -2.64096,7.01741 0,9.65837 1.35821,1.3582 3.0937,1.96185 4.82919,1.96185 1.73549,0.0755 3.47097,-0.60365 4.82918,-1.96185 z"
       id="path13"
       style="stroke-width:0.75456005" /><path
       inkscape:connector-curvature="0"
       d="m 161.95069,218.9997 c -1.28275,1.28275 -1.96185,3.01824 -1.96185,4.82918 0,1.81095 0.75456,3.54643 2.03731,4.82919 1.28275,1.28275 3.01824,2.03731 4.82918,2.03731 1.81095,0 3.54643,-0.75456 4.82919,-2.03731 1.28275,-1.28276 2.03731,-3.01824 2.03731,-4.82919 0,-1.81094 -0.75456,-3.54643 -2.03731,-4.82918 -1.28276,-1.28276 -3.01824,-2.03732 -4.82919,-2.03732 -1.8864,0 -3.69734,0.75456 -4.90464,2.03732 z"
       id="path15"
       style="stroke-width:0.75456005" /><path
       inkscape:connector-curvature="0"
       d="m 310.74993,181.12078 c -1.28275,1.28276 -2.03731,3.01824 -2.03731,4.82919 0,1.81094 0.75456,3.54643 2.03731,4.82918 1.28275,1.28275 3.01824,2.03731 4.82919,2.03731 1.81094,0 3.54643,-0.75456 4.82918,-2.03731 1.28275,-1.28275 1.96186,-3.01824 1.96186,-4.82918 0,-1.81095 -0.75456,-3.54643 -1.96186,-4.82919 -1.28275,-1.28275 -3.01824,-1.96185 -4.82918,-1.96185 -1.73549,-0.0755 -3.54644,0.6791 -4.82919,1.96185 z"
       id="path17"
       style="stroke-width:0.75456005" /><path
       inkscape:connector-curvature="0"
       d="m 287.43403,220.8861 c 1.73548,0 3.47097,-0.67911 4.82918,-1.96186 2.64096,-2.64096 2.64096,-7.01741 0,-9.65837 -2.64096,-2.64096 -7.01741,-2.64096 -9.65837,0 -2.64096,2.64096 -2.64096,7.01741 0,9.65837 1.35821,1.35821 3.0937,1.96186 4.82919,1.96186 z"
       id="path19"
       style="stroke-width:0.75456005" /><path
       inkscape:connector-curvature="0"
       d="m 296.71512,195.1556 c -2.64097,2.64096 -2.64097,7.01741 0,9.65837 1.3582,1.35821 3.09369,2.03731 4.82918,2.03731 1.73549,0 3.47098,-0.6791 4.82918,-2.03731 2.64096,-2.64096 2.64096,-7.01741 0,-9.65837 -2.64096,-2.64096 -7.0174,-2.64096 -9.65836,0 z"
       id="path21"
       style="stroke-width:0.75456005" /><path
       inkscape:connector-curvature="0"
       d="m 266.53271,228.20533 c 0,1.81094 0.75456,3.54643 2.03732,4.82918 1.28275,1.28276 3.01824,2.03732 4.82918,2.03732 1.81094,0 3.54643,-0.75456 4.82918,-2.03732 1.28276,-1.28275 2.03732,-3.01824 2.03732,-4.82918 0,-1.81094 -0.75456,-3.54643 -2.03732,-4.82918 -1.28275,-1.28276 -3.01824,-1.96186 -4.82918,-1.96186 -1.81094,0 -3.54643,0.75456 -4.82918,1.96186 -1.28276,1.20729 -2.03732,3.01824 -2.03732,4.82918 z"
       id="path23"
       style="stroke-width:0.75456005" /><path
       inkscape:connector-curvature="0"
       d="m 356.92904,376.85366 c 0,-21.2786 -17.27943,-38.55802 -38.55802,-38.55802 h -59.9121 v -43.23629 c 0,-18.1849 -5.28192,-31.31424 -15.84576,-39.01076 -16.60032,-12.22387 -39.46349,-5.20646 -40.36896,-4.90464 -2.86733,0.90548 -4.75373,3.54644 -4.75373,6.48922 v 48.44276 c 0,38.18073 -44.29267,51.23462 -46.17907,51.76281 -0.90548,0.22637 -1.66004,0.67911 -2.33914,1.2073 -2.33914,-2.94278 -5.96102,-4.82918 -9.96019,-4.82918 H 91.852065 C 84.834656,354.21686 79.1,359.95151 79.1,366.96892 v 132.87802 c 0,7.01741 5.734656,12.75207 12.752065,12.75207 h 47.009095 c 4.67827,0 8.82835,-2.56551 11.01657,-6.41376 6.94195,6.64013 16.2985,10.71475 26.63597,10.71475 h 118.46593 c 26.18326,0 42.85904,-13.73299 45.80182,-37.65255 l 15.92122,-101.33741 c 0.15091,-0.30182 0.22637,-0.6791 0.22637,-1.05638 z M 138.03114,498.86602 H 92.832993 V 367.87439 H 138.03114 Z M 327.35028,477.2856 c 0,0.0754 0,0.15091 0,0.22637 -2.11277,17.05305 -12.97843,25.73049 -32.2952,25.73049 H 176.58916 c -13.733,0 -24.90048,-11.16749 -24.90048,-24.90048 V 371.04354 c 1.05638,0.22637 2.18822,0.22637 3.2446,-0.0754 2.26368,-0.60365 56.13927,-16.2985 56.13927,-64.89216 v -42.93447 c 5.88557,-0.90547 16.07213,-1.43366 23.39136,3.92371 6.79104,4.9801 10.26202,14.4121 10.26202,27.99418 v 50.10279 c 0,3.7728 3.09369,6.86649 6.86649,6.86649 h 66.7786 c 13.58208,0 24.59866,10.86567 24.90048,24.37229 z"
       id="path25"
       style="stroke-width:0.75456005" /><path
       style="opacity:1;fill:#ffffff;fill-opacity:0.9;stroke-width:0;stroke-miterlimit:4;stroke-dasharray:none"
       d="m 169.62522,501.4472 c -6.74795,-2.02535 -14.12691,-9.72735 -16.08952,-16.79388 -0.96137,-3.46154 -1.61656,-27.47673 -1.62177,-59.44448 -0.008,-49.15205 0.21084,-53.63659 2.61745,-53.63659 1.4444,0 8.49675,-2.84151 15.67187,-6.31448 16.04585,-7.76663 29.28649,-20.18602 35.84244,-33.61933 4.4969,-9.21422 4.59564,-9.96484 5.09923,-38.75929 l 0.51352,-29.36309 h 7.47655 c 8.93106,0 16.40251,4.42419 21.16633,12.53357 2.92672,4.9821 3.26071,8.51143 3.70438,39.14548 0.41853,28.89799 0.84934,33.9471 3.03987,35.62722 1.87384,1.43723 12.26799,1.95754 39.10497,1.95754 27.71197,0 37.81628,0.52796 41.77712,2.18288 5.65852,2.3643 12.48359,10.42145 13.95528,16.4746 1.38628,5.70173 -15.69718,111.02013 -19.07354,117.58729 -1.66312,3.23479 -5.65241,7.08562 -9.73405,9.39618 l -6.916,3.91508 -65.77336,0.30413 c -38.27612,0.17696 -67.85839,-0.32171 -70.76077,-1.19283 z"
       id="path983"
       inkscape:connector-curvature="0" /></g></g></svg>