<?xml version="1.0" encoding="UTF-8" standalone="no"?>
<!-- Generator: Adobe Illustrator 19.0.0, SVG Export Plug-In . SVG Version: 6.00 Build 0)  -->

<svg
   xmlns:dc="http://purl.org/dc/elements/1.1/"
   xmlns:cc="http://creativecommons.org/ns#"
   xmlns:rdf="http://www.w3.org/1999/02/22-rdf-syntax-ns#"
   xmlns:svg="http://www.w3.org/2000/svg"
   xmlns="http://www.w3.org/2000/svg"
   xmlns:xlink="http://www.w3.org/1999/xlink"
   xmlns:sodipodi="http://sodipodi.sourceforge.net/DTD/sodipodi-0.dtd"
   xmlns:inkscape="http://www.inkscape.org/namespaces/inkscape"
   version="1.1"
   id="Capa_1"
   x="0px"
   y="0px"
   viewBox="0 0 512.009 512.009"
   style="enable-background:new 0 0 512.009 512.009;"
   xml:space="preserve"
   sodipodi:docname="no-like.svg"
   inkscape:version="0.92.4 (unknown)"><metadata
   id="metadata49"><rdf:RDF><cc:Work
       rdf:about=""><dc:format>image/svg+xml</dc:format><dc:type
         rdf:resource="http://purl.org/dc/dcmitype/StillImage" /></cc:Work></rdf:RDF></metadata><defs
   id="defs47"><linearGradient
     inkscape:collect="always"
     id="linearGradient894"><stop
       style="stop-color:#00fbff;stop-opacity:1;"
       offset="0"
       id="stop890" /><stop
       style="stop-color:#900084;stop-opacity:0"
       offset="1"
       id="stop892" /></linearGradient><linearGradient
     inkscape:collect="always"
     xlink:href="#linearGradient894"
     id="linearGradient896"
     x1="49.899185"
     y1="245.15685"
     x2="692.07996"
     y2="459.94028"
     gradientUnits="userSpaceOnUse"
     gradientTransform="matrix(1.1421053,0,0,1.1421053,-32.887053,-28.126729)" /></defs><sodipodi:namedview
   pagecolor="#ffffff"
   bordercolor="#666666"
   borderopacity="1"
   objecttolerance="10"
   gridtolerance="10"
   guidetolerance="10"
   inkscape:pageopacity="0"
   inkscape:pageshadow="2"
   inkscape:window-width="1366"
   inkscape:window-height="719"
   id="namedview45"
   showgrid="false"
   inkscape:zoom="0.46092942"
   inkscape:cx="-41.032686"
   inkscape:cy="56.407768"
   inkscape:window-x="0"
   inkscape:window-y="25"
   inkscape:window-maximized="1"
   inkscape:current-layer="Capa_1" />






<g
   id="g14">
</g>
<g
   id="g16">
</g>
<g
   id="g18">
</g>
<g
   id="g20">
</g>
<g
   id="g22">
</g>
<g
   id="g24">
</g>
<g
   id="g26">
</g>
<g
   id="g28">
</g>
<g
   id="g30">
</g>
<g
   id="g32">
</g>
<g
   id="g34">
</g>
<g
   id="g36">
</g>
<g
   id="g38">
</g>
<g
   id="g40">
</g>
<g
   id="g42">
</g>
<circle
   style="opacity:1;fill:url(#linearGradient896);fill-opacity:1;stroke-width:0;stroke-miterlimit:4;stroke-dasharray:none"
   id="path888"
   cx="259.49704"
   cy="251.86821"
   r="235.39395" /><rect
   x="90.96138"
   y="122.21372"
   style="fill:#0277bd;stroke-width:0.74297982"
   width="110.95142"
   height="190.20284"
   id="rect2" /><path
   style="fill:#01579b;stroke-width:0.74297982"
   d="M 201.9128,320.34193 H 90.961386 c -4.37689,0 -7.925364,-3.54848 -7.925364,-7.92537 V 122.21372 c 0,-4.3769 3.548474,-7.92537 7.925364,-7.92537 H 201.9128 c 4.37689,0 7.92536,3.54847 7.92536,7.92537 v 190.20284 c 0,4.37689 -3.54847,7.92537 -7.92536,7.92537 z M 98.886006,304.49119 H 193.98744 V 130.13909 H 98.886006 Z"
   id="path4"
   inkscape:connector-curvature="0" /><path
   style="fill:#ffffff;fill-opacity:1;stroke-width:0.74297982"
   d="m 201.9128,153.91445 c 13.812,-10.10898 30.43617,-15.65013 47.55071,-15.84999 h 146.61445 c 15.28383,-0.0535 27.7176,12.29334 27.77108,27.57793 0.0267,7.68464 -3.1428,15.03492 -8.75081,20.29003 15.1345,1.6353 26.07859,15.23035 24.4433,30.36483 -0.7103,6.57389 -3.76023,12.67301 -8.59257,17.18587 15.13672,1.61747 26.09643,15.19989 24.47821,30.3366 -0.99336,9.2932 -6.62812,17.45037 -14.96807,21.66828 14.87297,9.23672 19.44155,28.78154 10.20483,43.65452 -5.76776,9.28725 -15.91463,14.94727 -26.84758,14.9755 H 312.86421 c 8.70698,22.88303 14.04603,46.90878 15.85,71.32606 0,29.7192 -25.75689,55.47608 -39.62535,55.47608 -8.5532,-0.12482 -16.85821,-2.89316 -23.77537,-7.92537 v -55.47607 l -47.5507,-103.02679 -15.84999,-7.92536 z"
   id="path6"
   inkscape:connector-curvature="0" /><path
   style="fill:#01579b;stroke-width:0.74297982"
   d="m 289.08886,478.84403 c -10.34971,-0.15082 -20.3948,-3.52543 -28.73624,-9.65277 -1.87826,-1.50826 -2.96895,-3.78846 -2.96374,-6.1972 v -53.74791 l -45.66429,-98.90547 -13.36174,-6.68905 c -2.68141,-1.34331 -4.37466,-4.08564 -4.37466,-7.08505 V 153.91445 c -0.004,-2.10338 0.82841,-4.12207 2.31438,-5.61099 15.29275,-11.63804 33.94376,-18.01058 53.16095,-18.16437 h 146.61444 c 19.68525,0.026 35.63702,15.97778 35.66302,35.66303 0.0193,5.50029 -1.25118,10.92923 -3.70895,15.84999 17.47266,8.78425 24.55771,30.03941 15.84998,47.55071 17.49792,8.77162 24.57183,30.06765 15.8002,47.56557 -1.68507,3.36049 -3.8932,6.43197 -6.5434,9.09853 6.64521,7.24256 10.32296,16.72001 10.30289,26.54889 0,21.88448 -17.74086,39.62535 -39.62535,39.62535 h -99.85647 c 7.21656,20.42377 11.48646,41.77255 12.68043,63.40069 -7.5e-4,34.38065 -29.21248,63.40218 -47.55145,63.40218 z m -15.84999,-20.14589 c 4.84496,2.72451 10.2925,4.2008 15.84999,4.29516 8.68617,0 31.70071,-21.58801 31.70071,-47.5507 -1.82327,-23.44771 -6.984,-46.51574 -15.32692,-68.50497 -1.55803,-4.0901 0.49408,-8.6691 4.58493,-10.22712 0.89975,-0.34251 1.85448,-0.5186 2.81737,-0.51935 h 110.95141 c 13.12994,-0.11292 23.68323,-10.84897 23.57029,-23.97893 -0.0698,-8.12522 -4.28402,-15.6516 -11.17516,-19.95791 -3.72603,-2.29581 -4.88583,-7.17794 -2.58927,-10.90473 0.7556,-1.22666 1.83217,-2.22448 3.11234,-2.88499 9.70554,-4.84125 13.64927,-16.63383 8.80802,-26.33937 -2.99644,-6.007 -8.85261,-10.06738 -15.52902,-10.76652 -4.34867,-0.49483 -7.47289,-4.42222 -6.97732,-8.77088 0.21248,-1.86338 1.07806,-3.59157 2.4444,-4.87617 7.93874,-7.39042 8.38304,-19.81676 0.99261,-27.7555 -3.22751,-3.46674 -7.59919,-5.65035 -12.30968,-6.14816 -4.34866,-0.49482 -7.47289,-4.42221 -6.97732,-8.77087 0.21248,-1.8634 1.07805,-3.59157 2.44439,-4.87618 3.99353,-3.70748 6.26185,-8.9113 6.2611,-14.36031 -0.009,-10.9389 -8.87416,-19.80414 -19.81304,-19.81305 H 249.46351 c -13.97991,0.39601 -27.624,4.37466 -39.62535,11.55482 v 134.12495 l 11.47532,5.72169 c 1.60559,0.80315 2.89095,2.1279 3.64581,3.75651 L 272.51,404.17234 c 0.48146,1.04908 0.73034,2.1903 0.72887,3.34415 z"
   id="path8"
   inkscape:connector-curvature="0" /><path
   d="M 201.9128,320.34193 H 90.961386 c -4.37689,0 -7.925364,-3.54848 -7.925364,-7.92537 V 122.21372 c 0,-4.3769 3.548474,-7.92537 7.925364,-7.92537 H 201.9128 c 4.37689,0 7.92536,3.54847 7.92536,7.92537 v 190.20284 c 0,4.37689 -3.54847,7.92537 -7.92536,7.92537 z M 98.886006,304.49119 H 193.98744 V 130.13909 H 98.886006 Z"
   id="path10"
   inkscape:connector-curvature="0"
   style="stroke-width:0.74297982" /><path
   d="m 289.08886,478.84403 c -10.34451,-0.15305 -20.38367,-3.52766 -28.72063,-9.65277 -1.88419,-1.50455 -2.98158,-3.78624 -2.98009,-6.1972 v -53.74791 l -45.66429,-98.90547 -13.36175,-6.68905 c -3.91699,-1.95627 -5.50697,-6.71802 -3.5507,-10.63575 1.95626,-3.91699 6.71802,-5.50697 10.63576,-3.5507 l 15.84998,7.92536 c 1.60558,0.80317 2.89094,2.12789 3.6458,3.75651 l 47.55073,103.02678 c 0.48664,1.0476 0.74074,2.18882 0.7452,3.34416 v 51.18016 c 4.84496,2.72451 10.2925,4.2008 15.84999,4.29516 8.68617,0 31.70071,-21.58801 31.70071,-47.5507 -1.82327,-23.44771 -6.984,-46.51574 -15.32692,-68.50497 -1.55803,-4.0901 0.49408,-8.6691 4.58493,-10.22712 0.89975,-0.34251 1.85448,-0.5186 2.81737,-0.51935 h 110.95141 c 13.12994,-0.11292 23.68323,-10.84898 23.57029,-23.97893 -0.0698,-8.12522 -4.28402,-15.6516 -11.17516,-19.95791 -3.72603,-2.29582 -4.88583,-7.17794 -2.58927,-10.90473 0.7556,-1.22666 1.83217,-2.22448 3.11234,-2.88499 9.70554,-4.84125 13.64927,-16.63383 8.80802,-26.33937 -2.99644,-6.007 -8.85261,-10.06738 -15.52902,-10.76652 -4.34867,-0.49483 -7.47289,-4.42222 -6.97732,-8.77088 0.21248,-1.86339 1.07806,-3.59157 2.4444,-4.87617 7.93874,-7.39042 8.38304,-19.81676 0.99261,-27.75551 -3.22751,-3.46674 -7.59919,-5.65035 -12.30968,-6.14816 -4.34866,-0.49482 -7.47289,-4.42221 -6.97732,-8.77087 0.21248,-1.8634 1.07805,-3.59157 2.44439,-4.87618 3.99353,-3.70748 6.26185,-8.9113 6.2611,-14.36031 -0.009,-10.9389 -8.87416,-19.80414 -19.81304,-19.81305 H 249.46351 c -15.01784,0.2229 -29.62483,4.93785 -41.93973,13.53635 -3.14801,3.04102 -8.16535,2.95335 -11.20636,-0.19466 -2.96598,-3.07148 -2.96598,-7.94022 0,-11.01095 15.28755,-11.63953 33.93263,-18.01727 53.14609,-18.17924 h 146.61445 c 19.68525,0.026 35.63702,15.97778 35.66302,35.66303 0.0193,5.50029 -1.25118,10.92923 -3.70895,15.84999 17.47266,8.78425 24.55771,30.03942 15.84998,47.55072 17.49792,8.77162 24.57183,30.06765 15.8002,47.56557 -1.68507,3.36049 -3.8932,6.43197 -6.5434,9.09852 6.64521,7.24257 10.32296,16.72002 10.30289,26.5489 0,21.88447 -17.74086,39.62535 -39.62535,39.62535 h -99.85647 c 7.21656,20.42377 11.48646,41.77255 12.68043,63.40069 -7.5e-4,34.38065 -29.21248,63.40218 -47.55145,63.40217 z"
   id="path12"
   inkscape:connector-curvature="0"
   style="stroke-width:0.74297982" /></svg>